<svg xmlns="http://www.w3.org/2000/svg" viewBox="0 0 105.46 130.11"><defs><style>.cls-1{fill:#fff;fill-rule:evenodd;}</style></defs><g id="Layer_2" data-name="Layer 2"><g id="Layer_1-2" data-name="Layer 1"><path class="cls-1" d="M99,6.51a22.07,22.07,0,0,0-31.3,0A21.86,21.86,0,0,0,61.18,22c0,10,.08,19.94.11,30-.13,5.72-7.09,5.17-11.39,6-12.47.32-20.62,9.22-20.62,24.58v25.62a7.17,7.17,0,0,1-7.14,7.15h0A7.17,7.17,0,0,1,15,108.11V22a7.16,7.16,0,0,1,7.14-7.14h0A7.16,7.16,0,0,1,29.28,22V36.74h0v.95a7.35,7.35,0,0,0,7.49,7.15h0a7.35,7.35,0,0,0,7.49-7.15V22A21.86,21.86,0,0,0,37.79,6.51a22.07,22.07,0,0,0-31.3,0A21.9,21.9,0,0,0,0,22v86.12A21.92,21.92,0,0,0,6.49,123.6a22.09,22.09,0,0,0,31.3,0,21.88,21.88,0,0,0,6.49-15.49V82.77c0-10.31,4.59-11,13.62-11.11,10.86-.48,18.28-6.92,18.28-19.86V22a7.16,7.16,0,0,1,7.14-7.14h0A7.16,7.16,0,0,1,90.46,22v86.12a7.17,7.17,0,0,1-7.14,7.15h0a7.17,7.17,0,0,1-7.14-7.15V93.37h0v-1a7.34,7.34,0,0,0-7.49-7.14h0a7.34,7.34,0,0,0-7.49,7.14v15.7a21.88,21.88,0,0,0,6.49,15.49,22.14,22.14,0,0,0,37.79-15.49V22A21.9,21.9,0,0,0,99,6.51Z"/></g></g></svg>