<svg xmlns="http://www.w3.org/2000/svg" xmlns:xlink="http://www.w3.org/1999/xlink" viewBox="0 0 89.38 89.38"><defs><style>.cls-1{fill:url(#GradientFill_1);}.cls-2{fill:#fff;fill-rule:evenodd;}</style><linearGradient id="GradientFill_1" x1="68.49" y1="12.12" x2="20.89" y2="77.27" gradientUnits="userSpaceOnUse"><stop offset="0" stop-color="#4cb062"/><stop offset="1" stop-color="#00afdb"/></linearGradient></defs><g id="Layer_2" data-name="Layer 2"><g id="Layer_1-2" data-name="Layer 1"><rect class="cls-1" width="89.38" height="89.38" rx="15.24"/><path class="cls-2" d="M64.91,19.1a9.68,9.68,0,0,0-16.52,6.77c0,4.38,0,8.71,0,13.09,0,2.5-3.09,2.26-5,2.61-5.45.14-9,4-9,10.75v11.2a3.13,3.13,0,0,1-3.12,3.12h0a3.13,3.13,0,0,1-3.12-3.12V25.87a3.12,3.12,0,0,1,3.12-3.12h0a3.12,3.12,0,0,1,3.12,3.12v6.45h0v.41a3.2,3.2,0,0,0,3.27,3.12h0A3.21,3.21,0,0,0,41,32.73V25.87a9.68,9.68,0,0,0-19.36,0V63.52a9.68,9.68,0,0,0,19.36,0V52.44c0-4.51,2-4.8,6-4.86,4.75-.21,8-3,8-8.68v-13a3.13,3.13,0,0,1,3.12-3.12h0a3.13,3.13,0,0,1,3.13,3.12V63.52a3.14,3.14,0,0,1-3.13,3.12h0a3.14,3.14,0,0,1-3.12-3.12V57.07h0v-.42a3.21,3.21,0,0,0-3.28-3.12h0a3.2,3.2,0,0,0-3.27,3.12v6.87a9.58,9.58,0,0,0,2.83,6.77,9.67,9.67,0,0,0,13.69,0,9.58,9.58,0,0,0,2.83-6.77V25.87A9.57,9.57,0,0,0,64.91,19.1Z"/></g></g></svg>